<?xml version="1.0" encoding="UTF-8" standalone="no"?>
<!-- Created with Inkscape (http://www.inkscape.org/) -->

<svg
   xmlns:osb="http://www.openswatchbook.org/uri/2009/osb"
   xmlns:dc="http://purl.org/dc/elements/1.1/"
   xmlns:cc="http://creativecommons.org/ns#"
   xmlns:rdf="http://www.w3.org/1999/02/22-rdf-syntax-ns#"
   xmlns:svg="http://www.w3.org/2000/svg"
   xmlns="http://www.w3.org/2000/svg"
   xmlns:xlink="http://www.w3.org/1999/xlink"
   xmlns:sodipodi="http://sodipodi.sourceforge.net/DTD/sodipodi-0.dtd"
   xmlns:inkscape="http://www.inkscape.org/namespaces/inkscape"
   width="744.09448819"
   height="1052.3622047"
   id="svg2"
   version="1.1"
   inkscape:version="0.48.4 r9939"
   sodipodi:docname="optinomix_simple.svg">
  <sodipodi:namedview
     id="base"
     pagecolor="#ffffff"
     bordercolor="#666666"
     borderopacity="1.0"
     inkscape:pageopacity="0.0"
     inkscape:pageshadow="2"
     inkscape:zoom="1.979899"
     inkscape:cx="170.92236"
     inkscape:cy="941.6495"
     inkscape:document-units="px"
     inkscape:current-layer="text2985"
     showgrid="false"
     inkscape:snap-global="true"
     inkscape:object-paths="true"
     inkscape:window-width="1366"
     inkscape:window-height="716"
     inkscape:window-x="-8"
     inkscape:window-y="1016"
     inkscape:window-maximized="1" />
  <defs
     id="defs4">
    <linearGradient
       osb:paint="solid"
       id="linearGradient6308">
      <stop
         id="stop6310"
         offset="0"
         style="stop-color:#000000;stop-opacity:1;" />
    </linearGradient>
    <linearGradient
       osb:paint="solid"
       id="linearGradient6290">
      <stop
         id="stop6292"
         offset="0"
         style="stop-color:#ffffff;stop-opacity:0;" />
    </linearGradient>
    <marker
       style="overflow:visible"
       id="Arrow1Lstart"
       refX="0.0"
       refY="0.0"
       orient="auto"
       inkscape:stockid="Arrow1Lstart">
      <path
         transform="scale(0.8) translate(12.5,0)"
         style="fill-rule:evenodd;stroke:#000000;stroke-width:1.0pt"
         d="M 0.0,0.0 L 5.0,-5.0 L -12.5,0.0 L 5.0,5.0 L 0.0,0.0 z "
         id="path5668" />
    </marker>
    <linearGradient
       gradientUnits="userSpaceOnUse"
       y2="402.28635"
       x2="175.75"
       y1="402.28635"
       x1="154.40169"
       id="linearGradient6294"
       xlink:href="#linearGradient6290"
       inkscape:collect="always" />
    <linearGradient
       gradientUnits="userSpaceOnUse"
       y2="402.28635"
       x2="175.75"
       y1="402.28635"
       x1="154.40168"
       id="linearGradient6312"
       xlink:href="#linearGradient6308"
       inkscape:collect="always" />
    <linearGradient
       gradientUnits="userSpaceOnUse"
       y2="402.28635"
       x2="175.75"
       y1="402.28635"
       x1="154.40169"
       id="linearGradient6294-1"
       xlink:href="#linearGradient6290-1"
       inkscape:collect="always" />
    <linearGradient
       osb:paint="solid"
       id="linearGradient6290-1">
      <stop
         id="stop6292-5"
         offset="0"
         style="stop-color:#ffffff;stop-opacity:0;" />
    </linearGradient>
    <linearGradient
       gradientUnits="userSpaceOnUse"
       y2="402.28635"
       x2="175.75"
       y1="402.28635"
       x1="154.40169"
       id="linearGradient6312-2"
       xlink:href="#linearGradient6308-7"
       inkscape:collect="always" />
    <linearGradient
       osb:paint="solid"
       id="linearGradient6308-7">
      <stop
         id="stop6310-6"
         offset="0"
         style="stop-color:#000000;stop-opacity:1;" />
    </linearGradient>
    <linearGradient
       inkscape:collect="always"
       xlink:href="#linearGradient6290-1"
       id="linearGradient6331"
       gradientUnits="userSpaceOnUse"
       x1="154.40169"
       y1="402.28635"
       x2="175.75"
       y2="402.28635" />
    <linearGradient
       inkscape:collect="always"
       xlink:href="#linearGradient6308-7"
       id="linearGradient6333"
       gradientUnits="userSpaceOnUse"
       x1="154.40169"
       y1="402.28635"
       x2="175.75"
       y2="402.28635" />
    <linearGradient
       gradientUnits="userSpaceOnUse"
       y2="402.28635"
       x2="175.75"
       y1="402.28635"
       x1="154.40169"
       id="linearGradient6294-4"
       xlink:href="#linearGradient6290-2"
       inkscape:collect="always" />
    <linearGradient
       osb:paint="solid"
       id="linearGradient6290-2">
      <stop
         id="stop6292-3"
         offset="0"
         style="stop-color:#ffffff;stop-opacity:0;" />
    </linearGradient>
    <linearGradient
       gradientUnits="userSpaceOnUse"
       y2="402.28635"
       x2="175.75"
       y1="402.28635"
       x1="154.40169"
       id="linearGradient6312-22"
       xlink:href="#linearGradient6308-1"
       inkscape:collect="always" />
    <linearGradient
       osb:paint="solid"
       id="linearGradient6308-1">
      <stop
         id="stop6310-68"
         offset="0"
         style="stop-color:#000000;stop-opacity:1;" />
    </linearGradient>
    <linearGradient
       inkscape:collect="always"
       xlink:href="#linearGradient6290-2"
       id="linearGradient6375"
       gradientUnits="userSpaceOnUse"
       x1="154.40169"
       y1="402.28635"
       x2="175.75"
       y2="402.28635" />
    <linearGradient
       inkscape:collect="always"
       xlink:href="#linearGradient6308-1"
       id="linearGradient6377"
       gradientUnits="userSpaceOnUse"
       x1="154.40169"
       y1="402.28635"
       x2="175.75"
       y2="402.28635" />
    <linearGradient
       inkscape:collect="always"
       xlink:href="#linearGradient6290-2-6"
       id="linearGradient6375-7"
       gradientUnits="userSpaceOnUse"
       x1="154.40169"
       y1="402.28635"
       x2="175.75"
       y2="402.28635" />
    <linearGradient
       osb:paint="solid"
       id="linearGradient6290-2-6">
      <stop
         id="stop6292-3-1"
         offset="0"
         style="stop-color:#ffffff;stop-opacity:0;" />
    </linearGradient>
    <linearGradient
       inkscape:collect="always"
       xlink:href="#linearGradient6308-1-9"
       id="linearGradient6377-8"
       gradientUnits="userSpaceOnUse"
       x1="154.40169"
       y1="402.28635"
       x2="175.75"
       y2="402.28635" />
    <linearGradient
       osb:paint="solid"
       id="linearGradient6308-1-9">
      <stop
         id="stop6310-68-2"
         offset="0"
         style="stop-color:#000000;stop-opacity:1;" />
    </linearGradient>
    <linearGradient
       gradientUnits="userSpaceOnUse"
       y2="402.28635"
       x2="175.75"
       y1="402.28635"
       x1="154.40169"
       id="linearGradient6294-702"
       xlink:href="#linearGradient6290-480"
       inkscape:collect="always" />
    <linearGradient
       osb:paint="solid"
       id="linearGradient6290-480">
      <stop
         id="stop6552"
         offset="0"
         style="stop-color:#ffffff;stop-opacity:0;" />
    </linearGradient>
    <linearGradient
       gradientUnits="userSpaceOnUse"
       y2="402.28635"
       x2="175.75"
       y1="402.28635"
       x1="154.40168"
       id="linearGradient6312-288"
       xlink:href="#linearGradient6308-893"
       inkscape:collect="always" />
    <linearGradient
       osb:paint="solid"
       id="linearGradient6308-893">
      <stop
         id="stop6556"
         offset="0"
         style="stop-color:#000000;stop-opacity:1;" />
    </linearGradient>
    <linearGradient
       inkscape:collect="always"
       xlink:href="#linearGradient6290-1-615"
       id="linearGradient6331-829"
       gradientUnits="userSpaceOnUse"
       x1="154.40169"
       y1="402.28635"
       x2="175.75"
       y2="402.28635" />
    <linearGradient
       osb:paint="solid"
       id="linearGradient6290-1-615">
      <stop
         id="stop6560"
         offset="0"
         style="stop-color:#ffffff;stop-opacity:0;" />
    </linearGradient>
    <linearGradient
       inkscape:collect="always"
       xlink:href="#linearGradient6308-7-86"
       id="linearGradient6333-596"
       gradientUnits="userSpaceOnUse"
       x1="154.40169"
       y1="402.28635"
       x2="175.75"
       y2="402.28635" />
    <linearGradient
       osb:paint="solid"
       id="linearGradient6308-7-86">
      <stop
         id="stop6564"
         offset="0"
         style="stop-color:#000000;stop-opacity:1;" />
    </linearGradient>
    <linearGradient
       inkscape:collect="always"
       xlink:href="#linearGradient6290-2-44"
       id="linearGradient6375-869"
       gradientUnits="userSpaceOnUse"
       x1="154.40169"
       y1="402.28635"
       x2="175.75"
       y2="402.28635" />
    <linearGradient
       osb:paint="solid"
       id="linearGradient6290-2-44">
      <stop
         id="stop6568"
         offset="0"
         style="stop-color:#ffffff;stop-opacity:0;" />
    </linearGradient>
    <linearGradient
       inkscape:collect="always"
       xlink:href="#linearGradient6308-1-151"
       id="linearGradient6377-754"
       gradientUnits="userSpaceOnUse"
       x1="154.40169"
       y1="402.28635"
       x2="175.75"
       y2="402.28635" />
    <linearGradient
       osb:paint="solid"
       id="linearGradient6308-1-151">
      <stop
         id="stop6572"
         offset="0"
         style="stop-color:#000000;stop-opacity:1;" />
    </linearGradient>
    <linearGradient
       inkscape:collect="always"
       xlink:href="#linearGradient6290-2-6-30"
       id="linearGradient6375-7-373"
       gradientUnits="userSpaceOnUse"
       x1="154.40169"
       y1="402.28635"
       x2="175.75"
       y2="402.28635" />
    <linearGradient
       osb:paint="solid"
       id="linearGradient6290-2-6-30">
      <stop
         id="stop6576"
         offset="0"
         style="stop-color:#ffffff;stop-opacity:0;" />
    </linearGradient>
    <linearGradient
       inkscape:collect="always"
       xlink:href="#linearGradient6308-1-9-422"
       id="linearGradient6377-8-687"
       gradientUnits="userSpaceOnUse"
       x1="154.40169"
       y1="402.28635"
       x2="175.75"
       y2="402.28635" />
    <linearGradient
       osb:paint="solid"
       id="linearGradient6308-1-9-422">
      <stop
         id="stop6580"
         offset="0"
         style="stop-color:#000000;stop-opacity:1;" />
    </linearGradient>
  </defs>
  <metadata
     id="metadata7">
    <rdf:RDF>
      <cc:Work
         rdf:about="">
        <dc:format>image/svg+xml</dc:format>
        <dc:type
           rdf:resource="http://purl.org/dc/dcmitype/StillImage" />
        <dc:title></dc:title>
      </cc:Work>
    </rdf:RDF>
  </metadata>
  <g
     id="layer1"
     inkscape:groupmode="layer"
     inkscape:label="Layer 1">
    <g
       transform="translate(-2.1428572,-15)"
       id="text2985"
       style="font-size:40px;font-style:normal;font-weight:normal;line-height:125%;letter-spacing:0px;word-spacing:0px;fill:#000000;fill-opacity:1;stroke:none;font-family:Sans">
      <g
         transform="matrix(1.6246766,0,0,1.6246766,-142.6239,-575.98443)"
         id="text3100"
         style="font-variant:normal;font-weight:bold;font-stretch:normal;text-align:start;writing-mode:lr-tb;text-anchor:start;fill:#000000;font-family:DIN;-inkscape-font-specification:DIN Bold">
        <path
           inkscape:connector-curvature="0"
           id="path3184"
           style="font-family:DIN;-inkscape-font-specification:DIN Bold"
           d="m 172.93434,417.11081 c 0.025,-1.5708 -0.12502,-3.09911 -0.44999,-4.58494 -0.32502,-1.4858 -0.97501,-2.74411 -1.94998,-3.77495 -0.53001,-0.52664 -1.21,-0.9433 -2.03997,-1.24999 -0.83001,-0.30664 -1.74999,-0.4633 -2.75997,-0.46999 -1.07666,-0.0233 -2.07331,0.14335 -2.98996,0.49999 -0.91666,0.35668 -1.77332,1.04334 -2.56997,2.05998 l 0,-2.31997 -2.87996,0 0,28.47963 2.87996,0 0,-11.11986 c 0.79665,0.99916 1.65331,1.68082 2.56997,2.04498 0.91665,0.36416 1.9133,0.53582 2.98996,0.51499 1.00998,-0.007 1.92996,-0.16333 2.75997,-0.46999 0.82997,-0.30667 1.50996,-0.72333 2.03997,-1.24999 0.97497,-1.03082 1.62496,-2.28913 1.94998,-3.77495 0.32497,-1.48581 0.47497,-3.01412 0.44999,-4.58494 z m -2.87996,0 c 0.0625,1.99332 -0.22252,3.72663 -0.85499,5.19993 -0.63251,1.47332 -1.98749,2.24664 -4.06495,2.31997 -2.07915,-0.0733 -3.4408,-0.84665 -4.08495,-2.31997 -0.64416,-1.47331 -0.93582,-3.20661 -0.87499,-5.19993 -0.0608,-1.9933 0.23083,-3.7266 0.87499,-5.19993 0.64415,-1.4733 2.0058,-2.24662 4.08495,-2.31997 2.07746,0.0734 3.43244,0.84667 4.06495,2.31997 0.63247,1.47332 0.91747,3.20663 0.85499,5.19993 z" />
        <path
           inkscape:connector-curvature="0"
           id="path3186"
           style="font-family:DIN;-inkscape-font-specification:DIN Bold"
           d="m 187.74507,426.95068 0,-2.47996 -1.51998,0 c -0.91667,-0.007 -1.59332,-0.2625 -2.02998,-0.765 -0.43666,-0.50249 -0.65333,-1.20748 -0.64999,-2.11497 l 0,-11.99984 4.19995,0 0,-2.19997 -4.19995,0 0,-6.15993 -2.87996,0 0,6.15993 -2.47997,0 0,2.19997 2.47997,0 0,12.07984 c 0,1.49749 0.41999,2.74247 1.25998,3.73495 0.83999,0.99249 2.09997,1.50748 3.77996,1.54498 z" />
        <path
           sodipodi:nodetypes="ccccc"
           inkscape:connector-curvature="0"
           id="path3188"
           style="font-family:DIN;-inkscape-font-specification:DIN Bold"
           d="m 197.44013,426.95068 0,-19.67974 -2.87996,0 0,19.67974 z" />
        <path
           inkscape:connector-curvature="0"
           id="path3190"
           style="font-family:DIN;-inkscape-font-specification:DIN Bold"
           d="m 221.21184,426.95068 0,-12.59983 c 0.002,-1.14081 -0.16251,-2.16913 -0.49499,-3.08496 -0.33252,-0.91581 -0.84751,-1.71413 -1.54498,-2.39497 -0.60251,-0.60164 -1.3275,-1.05831 -2.17497,-1.36999 -0.84751,-0.31164 -1.80249,-0.4683 -2.86497,-0.46999 -1.10499,2e-5 -2.12498,0.20002 -3.05996,0.59999 -0.93499,0.40002 -1.75498,1.00001 -2.45997,1.79998 l 0,-2.15997 -2.87996,0 0,19.67974 2.87996,0 0,-12.11984 c 0.0183,-1.7233 0.46166,-3.02661 1.32999,-3.90995 0.86831,-0.88331 2.05163,-1.32663 3.54995,-1.32998 1.49664,8.5e-4 2.67329,0.43918 3.52996,1.31498 0.85664,0.87584 1.2933,2.18415 1.30998,3.92495 l 0,12.11984 z" />
        <path
           inkscape:connector-curvature="0"
           id="path3194"
           style="font-family:DIN;-inkscape-font-specification:DIN Bold"
           d="m 279.75105,426.95068 0,-12.59983 c -0.007,-2.28663 -0.71335,-4.11327 -2.11997,-5.47993 -0.60419,-0.58414 -1.33584,-1.0358 -2.19497,-1.35499 -0.85918,-0.31914 -1.82084,-0.4808 -2.88496,-0.48499 -1.38251,0.002 -2.61749,0.27835 -3.70496,0.82999 -1.0875,0.55168 -2.01249,1.36833 -2.77496,2.44997 -0.60668,-1.08164 -1.42333,-1.89829 -2.44997,-2.44997 -1.02667,-0.55164 -2.22332,-0.8283 -3.58995,-0.82999 -1.10667,2e-5 -2.13332,0.20002 -3.07996,0.59999 -0.94667,0.40002 -1.77332,1.00001 -2.47997,1.79998 l 0,-2.15997 -2.87996,0 0,19.67974 2.87996,0 0,-12.11984 c 0.02,-1.7233 0.46999,-3.02661 1.34998,-3.90995 0.87998,-0.88331 2.06997,-1.32663 3.56996,-1.32998 1.49663,8.5e-4 2.67328,0.43918 3.52995,1.31498 0.85664,0.87584 1.2933,2.18415 1.30998,3.92495 l 0,12.11984 2.87997,0 0,-12.43984 c 0.025,-1.56996 0.48497,-2.77995 1.37998,-3.62995 0.89496,-0.84997 2.07495,-1.27997 3.53995,-1.28998 1.49662,8.5e-4 2.67328,0.43918 3.52996,1.31498 0.85662,0.87584 1.29328,2.18415 1.30998,3.92495 l 0,12.11984 z" />
        <path
           inkscape:connector-curvature="0"
           id="path3198"
           style="font-family:DIN;-inkscape-font-specification:DIN Bold"
           d="m 313.21311,426.95068 -6.67992,-10.03987 6.39992,-9.63987 -3.47995,0 -4.43995,7.2799 -4.51994,-7.2799 -3.47995,0 6.39991,9.63987 -6.67991,10.03987 3.47996,0 4.79993,-7.6399 4.71994,7.6399 z" />
        <path
           transform="matrix(0.95281741,0,0,0.9348238,79.360135,41.576639)"
           d="m 175,402.28635 c 0,5.48096 -4.4432,9.92416 -9.92416,9.92416 -5.48097,0 -9.92416,-4.4432 -9.92416,-9.92416 0,-5.48097 4.44319,-9.92416 9.92416,-9.92416 5.48096,0 9.92416,4.44319 9.92416,9.92416 z"
           sodipodi:ry="9.924159"
           sodipodi:rx="9.924159"
           sodipodi:cy="402.28635"
           sodipodi:cx="165.07584"
           id="path3202"
           style="fill:url(#linearGradient6294-702);fill-opacity:1;fill-rule:nonzero;stroke:url(#linearGradient6312-288);stroke-width:2.4000001;stroke-linecap:round;stroke-linejoin:round;stroke-miterlimit:4;stroke-opacity:1;stroke-dasharray:none;stroke-dashoffset:0;marker-start:none"
           sodipodi:type="arc" />
        <path
           transform="matrix(0.95281741,0,0,0.9348238,-16.215703,40.938188)"
           d="m 175,402.28635 c 0,5.48096 -4.4432,9.92416 -9.92416,9.92416 -5.48097,0 -9.92416,-4.4432 -9.92416,-9.92416 0,-5.48097 4.44319,-9.92416 9.92416,-9.92416 5.48096,0 9.92416,4.44319 9.92416,9.92416 z"
           sodipodi:ry="9.924159"
           sodipodi:rx="9.924159"
           sodipodi:cy="402.28635"
           sodipodi:cx="165.07584"
           id="path3202-1"
           style="font-size:40px;font-style:normal;font-variant:normal;font-weight:bold;font-stretch:normal;text-align:start;line-height:125%;letter-spacing:0px;word-spacing:0px;writing-mode:lr-tb;text-anchor:start;fill:url(#linearGradient6331-829);fill-opacity:1;fill-rule:nonzero;stroke:url(#linearGradient6333-596);stroke-width:2.4000001;stroke-linecap:round;stroke-linejoin:round;stroke-miterlimit:4;stroke-opacity:1;stroke-dasharray:none;stroke-dashoffset:0;marker-start:none;font-family:DIN;-inkscape-font-specification:DIN Bold"
           sodipodi:type="arc" />
        <path
           transform="matrix(0.26634119,0,0,0.26131143,151.97628,295.09731)"
           d="m 175,402.28635 c 0,5.48096 -4.4432,9.92416 -9.92416,9.92416 -5.48097,0 -9.92416,-4.4432 -9.92416,-9.92416 0,-5.48097 4.44319,-9.92416 9.92416,-9.92416 5.48096,0 9.92416,4.44319 9.92416,9.92416 z"
           sodipodi:ry="9.924159"
           sodipodi:rx="9.924159"
           sodipodi:cy="402.28635"
           sodipodi:cx="165.07584"
           id="path3202-5"
           style="font-size:40px;font-style:normal;font-variant:normal;font-weight:bold;font-stretch:normal;text-align:start;line-height:125%;letter-spacing:0px;word-spacing:0px;writing-mode:lr-tb;text-anchor:start;fill:url(#linearGradient6375-869);fill-opacity:1;fill-rule:nonzero;stroke:url(#linearGradient6377-754);stroke-width:2.4000001;stroke-linecap:round;stroke-linejoin:round;stroke-miterlimit:4;stroke-opacity:1;stroke-dasharray:none;stroke-dashoffset:0;marker-start:none;font-family:DIN;-inkscape-font-specification:DIN Bold"
           sodipodi:type="arc" />
        <path
           sodipodi:nodetypes="ccccc"
           inkscape:connector-curvature="0"
           id="path3188-7"
           style="font-size:40px;font-style:normal;font-variant:normal;font-weight:bold;font-stretch:normal;text-align:start;line-height:125%;letter-spacing:0px;word-spacing:0px;writing-mode:lr-tb;text-anchor:start;fill:#000000;fill-opacity:1;stroke:none;font-family:DIN;-inkscape-font-specification:DIN Bold"
           d="m 290.42593,427.1828 0,-19.67974 -2.87996,0 0,19.67974 z" />
        <path
           transform="matrix(0.26634119,0,0,0.26131143,244.96208,295.32942)"
           d="m 175,402.28635 c 0,5.48096 -4.4432,9.92416 -9.92416,9.92416 -5.48097,0 -9.92416,-4.4432 -9.92416,-9.92416 0,-5.48097 4.44319,-9.92416 9.92416,-9.92416 5.48096,0 9.92416,4.44319 9.92416,9.92416 z"
           sodipodi:ry="9.924159"
           sodipodi:rx="9.924159"
           sodipodi:cy="402.28635"
           sodipodi:cx="165.07584"
           id="path3202-5-9"
           style="font-size:40px;font-style:normal;font-variant:normal;font-weight:bold;font-stretch:normal;text-align:start;line-height:125%;letter-spacing:0px;word-spacing:0px;writing-mode:lr-tb;text-anchor:start;fill:url(#linearGradient6375-7-373);fill-opacity:1;fill-rule:nonzero;stroke:url(#linearGradient6377-8-687);stroke-width:2.4000001;stroke-linecap:round;stroke-linejoin:round;stroke-miterlimit:4;stroke-opacity:1;stroke-dasharray:none;stroke-dashoffset:0;marker-start:none;font-family:DIN;-inkscape-font-specification:DIN Bold"
           sodipodi:type="arc" />
      </g>
    </g>
  </g>
</svg>
